<svg width="3529" height="701" viewBox="0 0 3529 701" fill="none" xmlns="http://www.w3.org/2000/svg">
<path d="M895.349 165.422C921.476 165.422 944.658 171.126 964.345 182.349C979.064 190.261 991.943 200.748 1002.98 213.812V173.15H1083.02V506.906C1083.02 537.448 1075.47 564.678 1060.39 588.965C1045.67 612.883 1025.43 631.834 999.671 645.633C974.28 659.432 944.658 666.24 911.172 666.24C885.046 666.24 860.759 662.008 838.313 653.361C815.866 644.713 796.547 632.57 780.356 617.115C764.349 602.028 752.758 584.181 745.398 563.574L824.146 533.768C829.113 550.143 839.417 563.39 854.32 573.142C869.775 583.261 888.726 588.597 910.988 588.597C928.099 588.597 943.186 585.285 956.065 578.845C969.497 572.406 979.616 563.022 986.976 550.511C994.335 538.552 997.831 523.833 997.831 506.722V468.084C988.447 478.571 977.96 487.219 965.633 493.842C945.578 504.514 922.579 509.849 896.637 510.033C863.887 510.033 834.633 502.49 808.874 487.403C782.932 472.316 762.877 451.709 748.158 425.399C733.439 399.088 726.079 370.018 726.079 336.9C726.079 303.782 733.439 274.344 748.158 248.401C762.877 222.643 782.748 202.404 808.139 187.685C833.529 172.598 862.415 165.055 894.613 165.055L895.349 165.422ZM2620.98 165.422C2655.39 165.422 2686.48 173.334 2714.45 189.157H2714.63C2742.6 205.164 2764.67 226.691 2781.05 254.289C2797.61 281.335 2806.07 313.165 2806.07 348.491C2806.07 383.817 2797.79 415.095 2781.05 442.694C2764.31 470.292 2741.86 492.002 2713.89 507.826C2685.93 523.833 2655.39 531.56 2620.98 531.56C2586.57 531.56 2555.11 523.649 2526.78 507.826C2498.81 491.818 2476.55 470.292 2459.62 442.694C2443.43 415.095 2435.15 383.817 2435.15 348.491C2435.15 313.165 2443.43 281.887 2459.62 254.289C2476.36 226.691 2498.81 204.98 2526.78 189.157C2554.74 173.15 2586.57 165.422 2620.98 165.422ZM3235.5 165.422C3262.92 165.422 3287.02 170.022 3307.63 179.038C3328.78 188.053 3346.45 200.564 3361.17 216.387H3361.53C3376.07 232.394 3387.29 250.609 3395.02 271.216C3402.75 291.271 3406.61 313.349 3406.61 336.9C3406.61 342.788 3406.24 349.043 3405.32 355.483C3404.96 361.922 3403.85 367.626 3402.2 372.41H3149.58C3150.68 384.369 3153.08 395.592 3157.67 405.896C3165.4 422.455 3176.44 435.15 3191.16 443.981C3206.25 453.181 3223.36 457.597 3242.68 457.597C3262 457.597 3278.37 453.733 3291.8 445.453C3305.6 437.174 3316.27 426.319 3324 412.519L3392.44 446.005C3385.64 462.748 3374.97 477.651 3360.25 490.531C3345.53 503.41 3328.23 513.529 3307.99 520.705C3288.31 528.064 3266.23 531.56 3242.31 531.56C3206.06 531.56 3174.42 523.281 3147.37 507.09C3120.32 490.715 3099.17 468.636 3084.26 440.67C3069.18 412.703 3061.63 383.081 3061.63 347.755C3061.63 312.43 3069.18 281.335 3084.26 254.289C3099.72 226.691 3120.51 204.98 3146.82 189.157C3173.5 173.15 3203.3 165.422 3235.87 165.422H3235.5ZM1213.65 380.873C1213.65 395.592 1216.59 408.472 1222.11 419.511C1228 430.182 1236.46 438.83 1247.14 445.269C1258.36 451.157 1270.69 454.285 1284.49 454.285C1298.28 454.285 1310.43 451.341 1321.1 445.269C1331.95 438.83 1340.23 429.814 1346.31 418.775C1352.19 407.736 1355.32 394.304 1355.32 378.849V172.966H1439.77V523.833H1359.74V482.067C1351.64 496.234 1340.42 507.274 1326.25 515.369C1307.85 526.04 1285.96 531.56 1261.12 531.56C1234.07 531.56 1210.52 525.488 1190.28 513.529C1170.41 501.57 1155.14 484.643 1144.47 463.3C1134.35 441.774 1129.01 416.751 1129.01 387.865V173.15H1213.47V381.057L1213.65 380.873ZM1814 380.873C1814 395.592 1816.95 408.472 1822.47 419.511C1828.54 430.182 1837 438.83 1847.67 445.269C1858.9 451.157 1871.41 454.285 1885.02 454.285C1898.64 454.285 1910.97 451.341 1921.64 445.269C1932.13 438.83 1940.59 429.814 1946.66 418.775C1952.55 407.736 1955.68 394.304 1955.68 378.849V172.966H2040.13V523.833H1960.09V482.067C1952 496.234 1940.77 507.274 1926.61 515.369C1908.21 526.04 1886.31 531.56 1861.47 531.56C1834.43 531.56 1810.88 525.488 1790.64 513.529C1770.77 501.57 1755.5 484.643 1744.83 463.3C1734.71 441.774 1729.37 416.751 1729.37 387.865V173.15H1813.82V381.057L1814 380.873ZM2958.05 173.334H3038.63V248.769H2958.05V398.904C2958.05 410.495 2960.07 420.431 2963.93 428.71C2968.17 436.806 2974.61 443.061 2983.25 447.293C2992.27 451.525 3003.68 453.733 3017.48 453.733V454.101C3020.6 454.101 3023.91 453.733 3027.96 453.365C3032.19 452.997 3036.24 452.445 3040.11 452.077V524.201C3034.22 524.936 3027.23 525.856 3019.5 526.776C3011.77 527.696 3004.6 528.064 2998.16 528.064C2958.6 528.064 2928.06 517.393 2905.98 495.866C2884.45 473.972 2873.78 443.245 2873.78 403.688V248.769H2813.06V173.334H2819.5C2836.61 173.334 2849.86 168.734 2859.43 159.719C2868.81 150.519 2873.6 137.456 2873.6 120.345V93.2989H2958.05V173.334ZM1691.1 243.986H1660.93C1637.01 243.986 1617.69 251.529 1602.97 266.616C1588.43 281.335 1581.08 301.942 1581.08 328.62V524.017H1496.62V173.15H1575.92V222.827C1584.02 205.532 1594.32 192.837 1607.57 184.925C1625.05 174.622 1646.21 169.286 1670.68 169.286H1691.28V244.17L1691.1 243.986ZM2177.75 208.66C2185.11 197.988 2194.31 188.973 2206.08 182.165C2224.85 170.942 2246.01 165.423 2271.77 165.239C2297.53 165.239 2320.53 170.942 2340.21 182.165C2360.45 193.205 2376.27 209.028 2387.31 229.267C2398.54 248.953 2404.24 271.952 2404.24 298.262V524.017H2319.79V318.317C2319.79 302.862 2316.85 289.431 2310.77 278.392C2304.7 267.352 2296.24 258.705 2285.57 252.633C2275.26 246.194 2262.39 242.882 2248.77 242.882C2235.16 242.882 2222.83 246.194 2212.16 252.633C2201.49 258.705 2193.21 267.352 2187.13 278.392C2181.25 289.431 2178.12 302.862 2178.12 318.317V524.017H2093.67V35.7104H2178.12V208.66H2177.75ZM3528.96 524.017H3444.51V35.7104H3528.96V523.833V524.017ZM2620.98 242.698C2601.66 242.698 2584.55 247.297 2570.01 256.865C2555.48 266.064 2543.89 278.392 2535.24 294.215C2526.96 309.854 2522.91 328.253 2522.91 348.491C2522.91 368.73 2526.96 386.945 2535.24 403.32C2543.89 419.327 2555.3 431.838 2570.01 440.67C2584.73 449.869 2602.21 454.285 2620.98 454.285C2639.75 454.285 2656.49 449.685 2670.66 440.67C2685.38 431.47 2696.6 419.143 2704.88 403.32C2713.53 386.945 2717.76 369.282 2717.76 348.491C2717.76 327.701 2713.53 309.67 2704.88 294.215C2696.6 278.208 2685.38 265.696 2670.66 256.865C2656.49 247.297 2640.3 242.698 2620.98 242.698ZM907.676 243.066C890.014 243.066 874.006 246.929 859.839 255.209C845.672 263.488 834.633 274.712 826.353 289.431C818.626 303.598 814.762 319.605 814.762 337.82C814.762 356.035 818.626 372.042 826.353 386.209C834.633 400.376 845.488 411.415 859.287 419.695C873.455 427.79 889.462 431.838 907.676 431.838C925.707 431.838 941.53 427.974 954.778 420.247C968.577 412.151 979.248 400.928 986.976 386.761C994.703 372.594 998.567 356.035 998.567 337.82C998.567 319.605 994.703 303.598 986.424 289.431C978.696 274.712 968.025 263.488 954.226 255.209C940.978 247.113 925.523 243.066 907.86 243.066H907.676ZM3235.5 234.97C3218.02 234.97 3202.2 239.57 3188.4 248.585H3188.58C3174.79 257.233 3164.3 270.112 3156.94 287.223C3154.36 293.479 3152.71 300.47 3151.24 307.83H3316.09C3315.35 299.918 3313.7 292.191 3311.12 285.199C3305.42 269.744 3296.03 257.417 3282.6 248.585C3269.72 239.386 3252.98 234.97 3235.5 234.97Z" fill="url(#paint0_linear_1031_119)"/>
<path d="M540.442 105.243L62.9908 2.02527C30.7927 -4.78231 0.434601 20.0562 0.434601 53.1741V414.528C0.434601 439.366 17.7295 460.525 42.0161 465.677L539.89 571.102L540.258 105.243H540.442Z" fill="url(#paint1_radial_1031_119)"/>
<path d="M540.443 571.121L178.169 494.397V283.362C178.169 238.285 207.055 198.911 249.741 185.296L253.972 184.008L540.627 105.261V571.121H540.443Z" fill="url(#paint2_linear_1031_119)"/>
<path d="M254.293 184.541L250.136 185.803C206.399 199.863 176.94 240.059 176.94 286.024L178.332 493.677L185.615 286.024C185.615 243.845 212.725 206.892 252.847 193.914L540.262 105.299L254.293 184.541Z" fill="url(#paint3_linear_1031_119)"/>
<path d="M178.169 529.516L540.442 606.239L244.956 698.602C211.655 709.089 177.985 683.883 177.985 648.373V529.516H178.169Z" fill="url(#paint4_linear_1031_119)"/>
<defs>
<linearGradient id="paint0_linear_1031_119" x1="2616.56" y1="584.549" x2="252.309" y2="-721.771" gradientUnits="userSpaceOnUse">
<stop stop-color="#0000A6"/>
<stop offset="1" stop-color="#000066"/>
</linearGradient>
<radialGradient id="paint1_radial_1031_119" cx="0" cy="0" r="1" gradientUnits="userSpaceOnUse" gradientTransform="translate(270.438 285.999) rotate(90) scale(414.146 392.212)">
<stop stop-color="#000066"/>
<stop offset="1" stop-color="#0066FF"/>
</radialGradient>
<linearGradient id="paint2_linear_1031_119" x1="89.4864" y1="-185.809" x2="701.985" y2="916.836" gradientUnits="userSpaceOnUse">
<stop stop-color="#00FFEA"/>
<stop offset="0.48" stop-color="#0057DA"/>
<stop offset="1" stop-color="#004AB8"/>
</linearGradient>
<linearGradient id="paint3_linear_1031_119" x1="113.12" y1="117.825" x2="496.18" y2="623.418" gradientUnits="userSpaceOnUse">
<stop stop-color="#00FFEA"/>
<stop offset="0.48" stop-color="#0057DA"/>
<stop offset="1" stop-color="#004AB8"/>
</linearGradient>
<linearGradient id="paint4_linear_1031_119" x1="474.942" y1="203.488" x2="301.441" y2="749.935" gradientUnits="userSpaceOnUse">
<stop offset="0.27" stop-color="#0066FF"/>
<stop offset="0.57" stop-color="#FF8000"/>
<stop offset="0.81" stop-color="#FFAE00"/>
<stop offset="1" stop-color="#FFE9BA"/>
</linearGradient>
</defs>
</svg>
