<svg width="659" height="145" viewBox="0 0 659 145" fill="none" xmlns="http://www.w3.org/2000/svg"><g clip-path="url(#clip0_7659_714)" fill="#212323"><path d="M16.837 66.696h19.781v13.807H.25V1.11h16.587v65.587zM41.84 80.503V1.11h16.587v79.394H41.84zM107.082 1.11v13.807H93.874v65.586H77.287V14.98H64.079V1.109h43.003zm46.873 0v13.807h-13.208v65.586H124.16V14.98h-13.208V1.109h43.003zm22.178 65.586h19.781v13.807h-36.368V1.11h16.587v65.587zm41.59 0h22.607v13.807h-39.194V1.11h37.965v13.808h-21.378v19.047h19.904v13.808h-19.904v18.924zM295.804 1.11h16.587v79.393h-16.587V47.525h-12.409v32.978h-16.587V1.11h16.587v32.67h12.409V1.11zm24.02 39.943c0-25.95 8.601-41.053 23.038-41.053 14.559 0 23.037 15.102 23.037 41.053 0 25.643-8.478 40.621-23.037 40.621-14.498 0-23.038-14.978-23.038-40.621zm29.611 0c0-20.526-1.782-27.245-6.573-27.245-4.731 0-6.574 6.718-6.574 27.245 0 20.218 1.782 26.752 6.574 26.752 4.73 0 6.573-6.534 6.573-26.752zM409.762 1.11v13.807h-13.208v65.586h-16.587V14.98h-13.208V1.109h43.003zm22.178 65.586h22.607v13.807h-39.194V1.11h37.965v13.808H431.94v19.047h19.904v13.808H431.94v18.924zm45.89 0h19.781v13.807h-36.368V1.11h16.587v65.587zm25.003 13.807V1.11h16.587v79.394h-16.587zm42.696-13.807h22.607v13.807h-39.194V1.11h37.966v13.808h-21.379v19.047h19.904v13.808h-19.904v18.924zm76.054 13.807h-18c-1.044-22.252-2.58-23.916-9.03-23.916h-3.195v23.916h-16.587V1.11h22.608c14.682 0 23.037 9.74 23.037 25.273 0 16.458-6.758 25.951-19.659 28.109 14.191.74 17.939 4.93 20.826 26.012zM591.42 42.78h3.624c6.451 0 8.846-3.76 8.846-14.424 0-9.863-2.457-13.376-9.276-13.376h-3.194v27.8zm61.064 33.285V55.847h-16.648v20.218h-6.574v4.438h29.488v-4.438h-6.266z"/></g><path d="M343.315 137.526l-7.624-19.521h5.005l5.429 14.747h.077l5.16-14.747h4.89l-7.624 19.906c-1.848 4.89-4.12 6.777-8.24 6.815-.654 0-1.578-.077-2.271-.192v-3.735a5.66 5.66 0 001.309.115c2.002 0 2.849-.693 3.889-3.388zm-19.263.039H312v-27.492h11.051c6.43 0 9.934 2.58 9.934 7.508 0 2.426-1.926 5.083-4.159 5.737 3.003.809 5.275 3.235 5.275 6.43 0 5.16-3.696 7.817-10.049 7.817zm-7.046-15.864h6.006c3.427 0 5.044-1.54 5.044-3.927 0-2.503-1.656-3.928-5.005-3.928h-6.045v7.855zm0 3.658v8.432h6.661c3.542 0 5.39-1.578 5.39-4.235 0-2.58-1.886-4.197-5.429-4.197h-6.622zm76.061 4.8v5.34l-21.466 3.769v5.34l26.833-4.71a6.678 6.678 0 003.78-2.211 6.623 6.623 0 001.586-4.068v-21.357l-10.733 1.879v16.018z" fill="#212323"/><path d="M376.968 105.384a6.69 6.69 0 00-3.78 2.216 6.63 6.63 0 00-1.587 4.069v21.357l10.733-1.885v-21.357l21.466-3.764v-5.34l-26.832 4.704zm40.249 24.022h5.276c.123 3.658 3.187 5.815 7.679 5.815 3.478 0 5.764-1.874 5.764-4.64 0-3.861-3.843-4.672-7.927-5.772-4.62-1.217-9.659-2.803-9.767-9.312 0-4.917 4.374-7.966 11.114-7.966 6.44 0 10.83 3.497 10.996 8.82h-5.071c-.161-3.251-2.571-5.12-6.048-5.12-3.478 0-5.801 1.666-5.758 4.186.037 3.375 2.978 4.389 6.44 5.339 5.028 1.298 11.237 2.355 11.237 9.552 0 5.206-4.368 8.624-11.071 8.624-7.819.005-12.864-3.781-12.864-9.526zm26.699-20.156a3.125 3.125 0 01.51-1.752 3.163 3.163 0 014.852-.522 3.13 3.13 0 01.703 3.421 3.15 3.15 0 01-2.915 1.945 3.037 3.037 0 01-2.929-1.887 3.011 3.011 0 01-.221-1.205zm.655 29.036v-21.16h5.028v21.144l-5.028.016zm22.802-10.616c0-6.669 4.331-11.18 10.583-11.18 5.763 0 9.724 4.351 9.724 10.774v1.709h-15.187c.246 3.86 2.415 6.749 5.726 6.749a4.149 4.149 0 002.788-.879 4.107 4.107 0 001.505-2.496h4.862c-.735 3.903-4.084 6.589-9.07 6.589-6.643 0-10.931-4.597-10.931-11.266zm15.241-1.746c-.124-3.62-1.964-6.22-4.739-6.22-2.774 0-4.948 2.6-5.366 6.22h10.105zm33.221-17.725h7.599v30.087h-5.028v-24.155l-9.193 24.155h-3.349l-9.155-24.113v24.113h-5.066v-30.087h7.556l8.34 22.521 8.296-22.521zm11.603 1.052c-.008-.62.17-1.229.511-1.748a3.16 3.16 0 013.224-1.363 3.152 3.152 0 011.619.848 3.117 3.117 0 01-.459 4.824 3.15 3.15 0 01-1.751.53 3.048 3.048 0 01-2.243-.87 3.004 3.004 0 01-.901-2.221zm.654 29.035v-21.16h5.039v21.176l-5.039-.016zm9.074-.002v-21.16h5.028v3.455a8.196 8.196 0 013.055-3.033 8.24 8.24 0 014.179-1.073c4.492 0 7.025 2.926 7.025 9.312v12.483h-5.023v-12.51c0-3.535-1.266-5.873-3.885-5.873-3.349 0-5.367 2.846-5.367 7.56v10.818l-5.012.021zm22.305-10.651c0-6.754 3.601-11.143 9.031-11.143a7.62 7.62 0 013.936 1.14 7.565 7.565 0 012.767 3.009v-14.475h5.029v32.121h-5.029v-3.497a7.578 7.578 0 01-2.767 3.009 7.62 7.62 0 01-3.936 1.14c-5.43-.086-9.031-4.555-9.031-11.304zm15.981.038c0-4.758-2.147-7.967-5.517-7.967-3.268 0-5.366 3.204-5.366 7.967 0 4.762 2.146 8.051 5.366 8.051 3.349 0 5.517-3.251 5.517-8.051zm7.678-.001c0-6.669 4.336-11.18 10.588-11.18 5.758 0 9.724 4.351 9.724 10.774v1.709h-15.203c.247 3.86 2.415 6.749 5.72 6.749a4.15 4.15 0 002.788-.881 4.118 4.118 0 001.506-2.494h4.862c-.736 3.903-4.084 6.589-9.07 6.589-6.622 0-10.915-4.597-10.915-11.266zm15.246-1.746c-.123-3.62-1.964-6.22-4.739-6.22-2.774 0-4.947 2.6-5.366 6.22h10.105zm22.765-8.801h-4.942a4.966 4.966 0 00-2.516.747 4.932 4.932 0 00-1.778 1.923v-2.67h-5.028v21.144h5.028v-16.606h9.236v-4.538zm-155.772 3.787v-3.786h-3.026a2.236 2.236 0 00-1.468.415c-.425.305-.728.75-.856 1.257v-7.289h-5.028v21.737c.032 3.93 2.082 5.708 6.225 5.708a13.246 13.246 0 003.976-.63v-3.845a9.079 9.079 0 01-2.64.395c-1.696 0-2.597-.63-2.597-2.509l.059-11.437 5.355-.016z" fill="#212323"/><defs><clipPath id="clip0_7659_714"><path fill="#fff" transform="translate(.25)" d="M0 0h658.5v81.674H0z"/></clipPath></defs></svg>
