<svg width="364" height="238" viewBox="0 0 364 238" fill="none" xmlns="http://www.w3.org/2000/svg">
<path d="M268.824 171.163H289.789V87.7954H268.824V171.163Z" fill="#172554"/>
<path d="M213.176 171.163H234.14V87.7954H213.176V171.163Z" fill="#172554"/>
<path d="M183.463 86.666C177.9 86.666 171.485 88.4253 164.52 89.9276V60.1704H143.562V171.161H164.276V105.61C171.26 103.745 177.689 103.383 181.323 103.383C184.507 103.383 185.234 106.091 185.234 108.938V171.161H206.192V106.935C206.192 93.4793 198.911 86.666 183.351 86.666" fill="#172554"/>
<path d="M83.8387 86.4216C83.8387 79.3381 88.4439 76.2806 95.388 76.2806C108.622 76.2806 133.082 78.5342 133.082 78.5342V61.4745C122.643 60.8288 114.271 60.0249 94.2582 60.0249C74.2451 60.0249 60 68.8809 60 89.6437C60 121.839 113.406 123.289 113.406 143.248C113.406 151.293 110.604 154.673 103.336 154.673C89.131 154.673 66.964 152.743 66.964 152.743V169.486C77.4033 170.29 89.686 171.094 104.38 171.094C123.746 171.094 137.938 162.08 137.938 141.475C137.938 107.026 83.8519 104.45 83.8519 86.4216" fill="#172554"/>
<path d="M241.121 87.7954V177.238C241.121 181.91 241.121 185.804 230.391 187.188V198.166C233.886 198.891 238.815 198.904 239.839 198.904C252.425 198.904 261.834 194.891 261.834 175.571V87.7954H241.121Z" fill="#172554"/>
<path d="M223.6 61.731C218.79 61.731 214.898 65.6186 214.898 70.4091C214.898 75.1995 218.797 79.0872 223.6 79.0872C228.404 79.0872 232.302 75.1995 232.302 70.4091C232.302 65.6186 228.404 61.731 223.6 61.731Z" fill="#172554"/>
<path d="M199.23 63.4741C195.384 63.4741 192.266 66.5843 192.266 70.4192C192.266 74.2542 195.384 77.3643 199.23 77.3643C203.075 77.3643 206.194 74.2542 206.194 70.4192C206.194 66.5843 203.075 63.4741 199.23 63.4741Z" fill="#172554"/>
<path d="M181.822 66.9478C179.899 66.9478 178.34 68.5028 178.34 70.4203C178.34 72.3378 179.899 73.8929 181.822 73.8929C183.744 73.8929 185.304 72.3378 185.304 70.4203C185.304 68.5028 183.744 66.9478 181.822 66.9478Z" fill="#172554"/>
<path d="M251.453 60C245.685 60 241.008 64.6652 241.008 70.4177C241.008 76.1701 245.685 80.8353 251.453 80.8353C257.222 80.8353 261.899 76.1701 261.899 70.4177C261.899 64.6652 257.222 60 251.453 60Z" fill="#172554"/>
<path d="M279.307 79.0949C284.117 79.0949 288.009 75.2072 288.009 70.4168C288.009 65.6264 284.111 61.7388 279.307 61.7388C274.504 61.7388 270.605 65.6264 270.605 70.4168C270.605 75.2072 274.504 79.0949 279.307 79.0949Z" fill="#172554"/>
<path d="M303.679 77.3643C307.524 77.3643 310.643 74.2542 310.643 70.4192C310.643 66.5843 307.524 63.4741 303.679 63.4741C299.834 63.4741 296.715 66.5843 296.715 70.4192C296.715 74.2542 299.834 77.3643 303.679 77.3643Z" fill="#172554"/>
<path d="M321.087 73.8929C323.011 73.8929 324.57 72.3378 324.57 70.4203C324.57 68.5028 323.011 66.9478 321.087 66.9478C319.165 66.9478 317.605 68.5028 317.605 70.4203C317.605 72.3378 319.165 73.8929 321.087 73.8929Z" fill="#172554"/>
</svg>
