<svg version="1.1" id="Layer_1" xmlns:x="ns_extend;" xmlns:i="ns_ai;" xmlns:graph="ns_graphs;" xmlns="http://www.w3.org/2000/svg" xmlns:xlink="http://www.w3.org/1999/xlink" x="0px" y="0px" viewBox="0 0 297.1 42" style="enable-background:new 0 0 297.1 42;" xml:space="preserve">
 <style type="text/css">
  .st0{fill:#00033B;}
 </style>
 <metadata>
  <sfw xmlns="ns_sfw;">
   <slices>
   </slices>
   <sliceSourceBounds bottomLeftOrigin="true" height="42" width="297.1" x="-21.6" y="-210.8">
   </sliceSourceBounds>
  </sfw>
 </metadata>
 <g>
  <path class="st0" d="M20.4,27.8V33L0,36.7V42l25.5-4.6c1.4-0.3,2.7-1.1,3.6-2.2c0.9-1.1,1.5-2.5,1.5-4v-21L20.4,12V27.8z">
  </path>
  <path class="st0" d="M5.1,4.6C3.7,4.9,2.4,5.7,1.5,6.8c-0.9,1.1-1.5,2.5-1.5,4v21L10.2,30V9l20.4-3.7V0L5.1,4.6z">
  </path>
  <path class="st0" d="M51.2,28.4h6.4c0.1,4.4,3.8,7,9.3,7c4.2,0,7-2.3,7-5.6c0-4.6-4.6-5.6-9.6-6.9c-5.6-1.5-11.6-3.4-11.8-11.2
		c0-5.9,5.3-9.6,13.4-9.6c7.8,0,13.1,4.2,13.3,10.6H73c-0.2-3.9-3.1-6.2-7.3-6.2c-4.2,0-7,2-6.9,5c0,4.1,3.6,5.3,7.8,6.4
		C72.6,19.5,80,20.8,80,29.5c0,6.3-5.3,10.4-13.4,10.4C57.3,39.9,51.2,35.3,51.2,28.4z">
  </path>
  <path class="st0" d="M83.4,4.1c0-0.7,0.2-1.5,0.6-2.1c0.4-0.6,1-1.1,1.7-1.4c0.7-0.3,1.5-0.4,2.2-0.2c0.7,0.1,1.4,0.5,2,1
		c0.5,0.5,0.9,1.2,1.1,1.9c0.2,0.7,0.1,1.5-0.2,2.2c-0.3,0.7-0.8,1.3-1.4,1.7c-0.6,0.4-1.4,0.6-2.1,0.6c-0.5,0-1-0.1-1.5-0.2
		c-0.5-0.2-0.9-0.5-1.2-0.8c-0.4-0.3-0.6-0.8-0.8-1.2C83.5,5.1,83.4,4.6,83.4,4.1z M84.2,39.1V13.6h6.1v25.4L84.2,39.1z">
  </path>
  <path class="st0" d="M111.7,26.3c0-8,5.2-13.5,12.8-13.5c7,0,11.7,5.2,11.7,13v2.1h-18.3c0.3,4.6,2.9,8.1,6.9,8.1
		c1.2,0.1,2.4-0.3,3.4-1.1c1-0.7,1.6-1.8,1.8-3h5.9c-0.9,4.7-4.9,7.9-10.9,7.9C116.8,39.9,111.7,34.3,111.7,26.3z M130,24.2
		c-0.1-4.4-2.4-7.5-5.7-7.5c-3.3,0-6,3.1-6.5,7.5H130z">
  </path>
  <path class="st0" d="M170.1,2.9h9.2v36.2h-6.1V10l-11.1,29.1h-4l-11-29v29h-6.1V2.9h9.1L160.1,30L170.1,2.9z">
  </path>
  <path class="st0" d="M184.1,4.1c0-0.7,0.2-1.5,0.6-2.1c0.4-0.6,1-1.1,1.7-1.4c0.7-0.3,1.5-0.4,2.2-0.2c0.7,0.1,1.4,0.5,2,1
		c0.5,0.5,0.9,1.2,1.1,1.9c0.1,0.7,0.1,1.5-0.2,2.2c-0.3,0.7-0.8,1.3-1.4,1.7c-0.6,0.4-1.4,0.6-2.1,0.6c-0.5,0-1-0.1-1.5-0.2
		c-0.5-0.2-0.9-0.5-1.2-0.8c-0.4-0.3-0.6-0.8-0.8-1.2C184.2,5.1,184.1,4.6,184.1,4.1z M184.9,39.1V13.6h6.1v25.5L184.9,39.1z">
  </path>
  <path class="st0" d="M195.8,39.1V13.6h6.1v4.2c0.9-1.5,2.1-2.8,3.7-3.7c1.5-0.9,3.3-1.3,5-1.3c5.4,0,8.5,3.5,8.5,11.2v15H213V24
		c0-4.3-1.5-7.1-4.7-7.1c-4,0-6.5,3.4-6.5,9.1v13L195.8,39.1z">
  </path>
  <path class="st0" d="M222.7,26.3c0-8.1,4.3-13.4,10.9-13.4c1.7,0,3.3,0.5,4.7,1.4c1.4,0.9,2.6,2.1,3.3,3.6V0.4h6.1v38.7h-6.1v-4.2
		c-0.8,1.5-1.9,2.7-3.3,3.6c-1.4,0.9-3.1,1.4-4.7,1.4C227.1,39.8,222.7,34.4,222.7,26.3z M242,26.3c0-5.7-2.6-9.6-6.7-9.6
		c-3.9,0-6.5,3.9-6.5,9.6c0,5.7,2.6,9.7,6.5,9.7C239.4,36,242,32.1,242,26.3z">
  </path>
  <path class="st0" d="M251.3,26.3c0-8,5.2-13.5,12.8-13.5c6.9,0,11.7,5.2,11.7,13v2.1h-18.3c0.3,4.6,2.9,8.1,6.9,8.1
		c1.2,0.1,2.4-0.3,3.4-1.1c1-0.7,1.6-1.8,1.8-3h5.9c-0.9,4.7-4.9,7.9-10.9,7.9C256.4,39.9,251.3,34.3,251.3,26.3z M269.7,24.2
		c-0.1-4.4-2.4-7.5-5.7-7.5s-6,3.1-6.5,7.5H269.7z">
  </path>
  <path class="st0" d="M297.1,13.6h-6c-1.1,0-2.1,0.3-3,0.9c-0.9,0.6-1.7,1.4-2.1,2.3v-3.2h-6.1v25.4h6.1v-20h11.1V13.6z">
  </path>
  <path class="st0" d="M109.3,18.2v-4.6h-3.7c-0.6,0-1.3,0.1-1.8,0.5c-0.5,0.4-0.9,0.9-1,1.5V6.9h-6.1V33c0,4.7,2.5,6.9,7.5,6.9
		c1.6,0,3.2-0.3,4.8-0.8v-4.6c-1,0.3-2.1,0.5-3.2,0.5c-2,0-3.1-0.8-3.1-3l0.1-13.8L109.3,18.2z">
  </path>
 </g>
</svg>