<svg xmlns="http://www.w3.org/2000/svg" width="401" height="100" viewBox="0 0 401 100" fill="none">
  <defs>
    <linearGradient id="orangeGrad" x1="333.10394104003905" y1="32.0" x2="369.10394104003905" y2="68.0" gradientUnits="userSpaceOnUse">
      <stop offset="0%" stop-color="#F6A905"/>
      <stop offset="100%" stop-color="#F07E07"/>
    </linearGradient>
  </defs>
  <g transform="translate(13.40,83.81)">
    <path d="M4.60,-0.00 L22.08,-0.00 L22.08,-18.40 L34.04,-18.40 C55.39,-18.40 62.10,-26.22 62.10,-41.40 C62.10,-56.58 55.39,-64.40 34.04,-64.40 L4.60,-64.40 L4.60,-0.00 Z M22.08,-34.04 L22.08,-48.76 L33.39,-48.76 C43.05,-48.76 44.16,-46.27 44.16,-41.40 C44.16,-36.53 43.05,-34.04 33.39,-34.04 L22.08,-34.04 Z M68.54,-46.00 L68.54,-21.16 C68.54,-3.31 75.35,1.38 87.13,1.38 C93.19,1.38 97.79,-1.29 100.74,-5.89 L100.74,-0.00 L117.30,-0.00 L117.30,-46.00 L100.74,-46.00 L100.74,-23.00 C100.74,-16.93 97.79,-13.80 92.65,-13.80 C86.85,-13.80 85.10,-16.93 85.10,-23.00 L85.10,-46.00 L68.54,-46.00 Z M143.06,-0.00 L143.06,-69.00 L126.50,-69.00 L126.50,-0.00 L143.06,-0.00 Z M168.82,-0.00 L168.82,-69.00 L152.26,-69.00 L152.26,-0.00 L168.82,-0.00 Z M176.18,-31.74 C176.18,-18.86 188.51,-17.02 198.53,-16.19 C206.17,-15.55 209.95,-15.45 209.95,-13.89 C209.95,-12.79 207.83,-11.96 203.97,-11.96 C195.41,-11.96 190.90,-12.88 190.90,-15.64 L176.18,-15.64 C176.18,-3.68 183.91,1.38 201.11,1.38 C215.55,1.38 223.29,-3.22 223.29,-14.26 C223.29,-27.14 213.25,-28.06 200.83,-29.53 C193.66,-30.36 189.52,-30.91 189.52,-32.20 C189.52,-33.21 190.53,-34.04 195.04,-34.04 C204.15,-34.04 207.83,-33.21 207.83,-30.36 L222.55,-30.36 C222.55,-42.32 215.55,-47.38 198.72,-47.38 C182.07,-47.38 176.18,-42.78 176.18,-31.74 Z M228.80,-23.00 C228.80,-6.99 237.36,1.38 255.21,1.38 C273.05,1.38 281.70,-6.99 281.70,-23.00 C281.70,-39.01 273.05,-47.38 255.21,-47.38 C237.36,-47.38 228.80,-39.01 228.80,-23.00 Z M245.82,-23.00 C245.82,-29.07 248.21,-32.20 255.21,-32.20 C261.55,-32.20 264.68,-29.07 264.68,-23.00 C264.68,-16.93 261.55,-13.80 255.21,-13.80 C248.96,-13.80 245.82,-16.93 245.82,-23.00 Z" fill="#343434"/>
  </g>
  <circle cx="351.10" cy="50.00" r="30.00" fill="white" stroke="#E6E6E6" stroke-width="4"/>
  <circle cx="351.10" cy="50.00" r="18.5" fill="url(#orangeGrad)"/>
</svg>